<?xml version="1.0" standalone="no"?><!DOCTYPE svg PUBLIC "-//W3C//DTD SVG 1.1//EN" "http://www.w3.org/Graphics/SVG/1.1/DTD/svg11.dtd"><svg t="1621581582498" class="icon" viewBox="0 0 1024 1024" version="1.1" xmlns="http://www.w3.org/2000/svg" p-id="2380" xmlns:xlink="http://www.w3.org/1999/xlink" width="200" height="200"><defs><style type="text/css"></style></defs><path d="M941.056 148.992l-42.496-0.512c-1.024 0-95.744-2.048-193.536-41.984-100.352-40.448-164.864-87.552-165.888-88.064l-25.6-18.432-25.088 18.432c-0.512 0.512-65.536 47.104-165.888 88.064C224.768 146.432 130.048 148.48 129.024 148.48l-41.984 0.512v430.592c0 216.064 278.016 444.416 427.008 444.416 149.504 0 427.008-228.352 427.008-444.416V148.992z m-214.528 267.264L481.792 660.48c-5.632 6.656-13.312 9.216-22.528 9.216h-4.608v1.024c-8.704 0-16.896-3.072-22.528-8.704l-130.56-131.584c-6.656-6.656-9.216-15.872-8.704-25.6 1.024-10.24 5.632-19.968 13.312-28.16 9.216-9.216 19.968-13.312 31.744-13.312 8.704 0 16.896 3.072 22.528 8.704L456.704 568.32l210.432-210.432c5.632-5.632 13.312-8.704 22.528-8.704h3.584c10.24 1.024 19.968 5.632 28.16 13.312 8.704 8.704 12.288 17.92 13.312 28.16 1.024 10.24-1.536 19.968-8.192 25.6z" p-id="2381"></path></svg>