<?xml version="1.0" standalone="no"?><!DOCTYPE svg PUBLIC "-//W3C//DTD SVG 1.1//EN" "http://www.w3.org/Graphics/SVG/1.1/DTD/svg11.dtd"><svg t="1623307302322" class="icon" viewBox="0 0 1024 1024" version="1.1" xmlns="http://www.w3.org/2000/svg" p-id="18895" xmlns:xlink="http://www.w3.org/1999/xlink" width="220" height="220"><defs><style type="text/css"></style></defs><path d="M105.43 308.712H54.2c-27.29 0-50.415 22.667-50.415 50.671v305.232c0 27.652 22.567 50.67 50.414 50.67h51.23V308.713z m813.146 0H969.8c27.902 0 50.414 23.024 50.414 50.671v305.232c0 28.056-23.12 50.67-50.414 50.67h-51.225V308.713zM816.93 156.249H207.069c-28.05 0-50.82 22.768-50.82 50.82V816.93c0 28.104 22.77 50.82 50.82 50.82h609.862c28.105 0 50.827-22.716 50.827-50.82V207.068c-0.007-28.05-22.722-50.82-50.827-50.82zM334.124 308.712c42.134 0 76.235 34.1 76.235 76.235 0 42.13-34.1 76.23-76.235 76.23-42.13 0-76.23-34.101-76.23-76.23 0-42.134 34.1-76.235 76.23-76.235zM207.069 810.776s41.624-253.14 124.616-253.14 73.083 70.698 135.441 70.698c62.411 0 88.18-217.975 172.033-217.975 83.855 0 177.773 400.418 177.773 400.418H207.069z m0 0" p-id="18896"></path></svg>