<?xml version="1.0" standalone="no"?><!DOCTYPE svg PUBLIC "-//W3C//DTD SVG 1.1//EN" "http://www.w3.org/Graphics/SVG/1.1/DTD/svg11.dtd"><svg t="1623307243871" class="icon" viewBox="0 0 1024 1024" version="1.1" xmlns="http://www.w3.org/2000/svg" p-id="17994" xmlns:xlink="http://www.w3.org/1999/xlink" width="220" height="220"><defs><style type="text/css"></style></defs><path d="M887.1 591.2c-0.8-9-2.4-16.7-4.6-22.7-4.5-10.7-11.2-20.7-20-30.1-8.8-9.5-16.8-16-24.3-19.8-6.8-3.8-15.4-6.2-26.1-7.3-10.6-1.2-20.5 2.4-29.4 10.7-3.8 3.2-8.5 7.3-14.2 12.5-5.6 5.2-10.6 9.8-15.3 13.7l96.3 95.3c2.4-1.6 5-3.8 8-6.8 2.4-2.4 5-5 8-8.5 3.1-3.3 6.5-7 10.2-10.7 8.4-8.5 12.2-17.3 11.4-26.3zM604.6 693.7c-13.6 13.7-27.3 27.5-40.8 41.5-13.6 14-26.1 26.7-37.4 38L498 801.7l-14.6 14.8c-7.6 7.5-13.6 16.2-18.3 25.9-1.4 3.2-3.5 8.7-6.2 17.2-2.6 8.2-5.4 17.2-8.4 26.7-3 9.3-5.7 18.6-8 27.8-2.3 9-3.8 15.9-4.5 20.3-1.5 9-0.7 15.5 2.3 19.4 3.1 3.7 9.2 4.8 18.2 3.3 4.5-0.6 11.4-2.3 20.4-4.6 9.1-2.1 18.5-4.8 28.3-8 9.7-2.8 19.4-6.2 29-9.6 9.4-3.4 16.4-6.2 20.9-8.5 4.6-2.3 9-5.1 13.6-8.5 4.5-3.5 8.6-6.7 12.4-9.7 0.7-0.7 4.7-4.9 11.9-12.4 7.2-7.8 16-16.7 26.5-27.3L809.6 680l-95.1-95.3c-40.8 40.2-77.5 76.5-109.9 109z m201.5-557.9c0-39.5-37.7-71.6-77.2-71.6h-505c-39.4 0-77.2 32-77.2 71.6v685.8c0 39.5 37.7 77.4 77.2 77.4h103.7l478.5-479.5V135.8z m-345 491.8H277.4v-47.3H461v47.3z m0-107.3H277.4V473H461v47.3z m214.2-107.4H277.4v-47.3h397.9v47.3z m0-107.4H277.4v-47.4h397.9v47.4z" p-id="17995"></path></svg>