<?xml version="1.0" standalone="no"?><!DOCTYPE svg PUBLIC "-//W3C//DTD SVG 1.1//EN" "http://www.w3.org/Graphics/SVG/1.1/DTD/svg11.dtd"><svg t="1623307587525" class="icon" viewBox="0 0 1024 1024" version="1.1" xmlns="http://www.w3.org/2000/svg" p-id="22611" xmlns:xlink="http://www.w3.org/1999/xlink" width="220" height="220"><defs><style type="text/css"></style></defs><path d="M800 96H224c-52.928 0-96 43.072-96 96v640c0 52.928 43.072 96 96 96h576c52.928 0 96-43.072 96-96V192c0-52.928-43.072-96-96-96zM672.992 512.864c0 17.664-14.304 32-32 32H287.776c-17.664 0-32-14.336-32-32s14.336-32 32-32h353.216c17.696 0 32 14.336 32 32zM511.104 256c26.528 0 48 21.504 48 48 0 26.528-21.472 48.032-48 48.032s-48-21.504-48-48.032c0-26.496 21.472-48 48-48z m-207.392 0c26.528 0 48 21.504 48 48 0 26.528-21.472 48.032-48 48.032s-48-21.504-48-48.032c0-26.496 21.472-48 48-48zM734.88 735.52H287.648c-17.664 0-32-14.304-32-32s14.336-32 32-32H734.88c17.696 0 32 14.304 32 32s-14.304 32-32 32z m-15.648-383.488c-26.528 0-48-21.504-48-48.032 0-26.496 21.472-48 48-48s48 21.504 48 48c0 26.528-21.472 48.032-48 48.032z" p-id="22612"></path></svg>