<?xml version="1.0" standalone="no"?><!DOCTYPE svg PUBLIC "-//W3C//DTD SVG 1.1//EN" "http://www.w3.org/Graphics/SVG/1.1/DTD/svg11.dtd"><svg t="1623306812066" class="icon" viewBox="0 0 1024 1024" version="1.1" xmlns="http://www.w3.org/2000/svg" p-id="9069" xmlns:xlink="http://www.w3.org/1999/xlink" width="220" height="220"><defs><style type="text/css"></style></defs><path d="M55.05024 252.1088C55.05024 122.49088 259.56352 17.408 511.83616 17.408c252.29312 0 456.8064 105.08288 456.8064 234.7008 0 129.61792-204.51328 234.7008-456.8064 234.7008-252.3136 0-456.8064-105.08288-456.8064-234.7008z m456.8064 305.29536c186.5728 0 347.05408-57.48736 417.97632-139.85792 24.96512 29.02016 38.83008 61.09184 38.83008 94.84288 0 129.6384-204.51328 234.7008-456.8064 234.7008-252.3136 0-456.8064-105.0624-456.8064-234.7008 0-33.75104 13.86496-65.82272 38.83008-94.8224 70.92224 82.35008 231.38304 139.83744 417.97632 139.83744z m0 266.752c189.0304 0 351.232-58.9824 420.70016-143.09376 23.2448 28.16 36.10624 59.10528 36.10624 91.60704 0 129.6384-204.51328 234.7008-456.8064 234.7008-252.3136 0-456.8064-105.0624-456.8064-234.7008 0-32.50176 12.86144-63.44704 36.10624-91.60704 69.46816 84.11136 231.66976 143.09376 420.70016 143.09376z" p-id="9070"></path></svg>