<?xml version="1.0" standalone="no"?><!DOCTYPE svg PUBLIC "-//W3C//DTD SVG 1.1//EN" "http://www.w3.org/Graphics/SVG/1.1/DTD/svg11.dtd"><svg t="1621585771916" class="icon" viewBox="0 0 1024 1024" version="1.1" xmlns="http://www.w3.org/2000/svg" p-id="29230" xmlns:xlink="http://www.w3.org/1999/xlink" width="250" height="250"><defs><style type="text/css"></style></defs><path d="M859.900888 775.097131c5.648947 38.361484 38.371755 32.722808 44.010432 49.649108 0 10.712457-5.638676 49.638837-22.000081 54.722888-16.361404 0-38.361484-5.638676-54.722888 0-10.712457 5.648947-22.00008 10.722728-27.638757 22.000081-10.722728 27.638756 10.712457 49.638837 0 60.361564-16.361404 10.712457-49.649107 27.638756-60.361564 16.361405-16.361404-16.361404-16.361404-38.361484-49.649108-38.361485-44.010431 0-44.010431 44.010431-66.00024 44.010431s-60.361565-16.361404-60.361565-32.722808c5.648947-22.00008 16.361404-38.361484-5.638676-60.361565-27.638756-22.00008-60.361565 0-71.638917-10.712457-16.351133-10.722728-22.00008-38.361484-16.351133-54.712618s44.020702-16.392217 44.020702-60.392377c0-32.712538-38.361484-38.351214-44.00016-60.361565-5.648947-16.361404 5.638676-44.010431 21.989809-49.649107 27.638756-10.712457 44.00016 10.712457 71.649187-10.712457 16.361404-16.351133 10.722728-54.722889 10.722729-66.000241 5.638676-16.361404 27.638756-22.00008 44.00016-22.00008 32.722808 0 22.00008 38.361484 66.010512 44.00016 44.00016 0 38.361484-16.351133 60.351294-44.00016 27.638756 0 49.649107 10.712457 54.722888 22.00008 10.712457 22.00008-10.712457 54.722889 22.00008 76.722969 27.638756 16.351133 54.722889-5.648947 71.638917 0 10.712457 5.638676 16.351133 22.00008 21.98981 44.010431-10.712457 32.137372-60.361565 26.498696-54.722889 76.147803zM661.900166 665.086459c-132.000481 32.722808-82.361645 225.084855 44.000161 203.649669 126.9267-27.649027 110.000401-231.288425-44.000161-203.649669zM436.825582 472.734684c-132.010752 0-236.372477-104.361725-236.372477-236.341665S304.81483 0 436.825582 0s236.351936 104.361725 236.351936 236.393019c0 126.330993-104.351454 236.372477-236.362206 236.372477z m192.372317 54.712618s-88.010592 0-82.371915 60.361565c5.648947 66.000241-82.361645 16.351133-98.712779 71.638916-22.00008 66.000241 10.712457 54.722889 27.638757 98.723049 10.722728 27.638756-44.00016 44.00016-38.361485 93.638997 10.722728 66.000241 66.000241 32.722808 82.361645 71.638917 10.712457 32.722808-27.638756 54.722889-115.649348 54.722889-71.638917 0-208.72345 0-258.362287-5.648947 0 0-142.764293-5.638676-142.764293-98.723049 0 0-5.648947-137.628887 82.361645-236.362207 0 0 93.638997-120.723129 252.733882-120.723129z m0 0" p-id="29231"></path></svg>