<?xml version="1.0" standalone="no"?><!DOCTYPE svg PUBLIC "-//W3C//DTD SVG 1.1//EN" "http://www.w3.org/Graphics/SVG/1.1/DTD/svg11.dtd"><svg t="1623747888572" class="icon" viewBox="0 0 1024 1024" version="1.1" xmlns="http://www.w3.org/2000/svg" p-id="43904" xmlns:xlink="http://www.w3.org/1999/xlink" width="220" height="220"><defs><style type="text/css"></style></defs><path d="M1008.091833 6.314612c12.598194 9.107315 17.71815 21.333149 15.421927 36.537866l-146.2911 877.715572c-1.877317 11.046692-8.005749 19.579952-18.261176 25.708384a35.482845 35.482845 0 0 1-17.733665 4.5459 39.035784 39.035784 0 0 1-13.73079-2.823733L568.691021 842.263756l-138.300866 168.524121c-6.857638 8.797015-16.182163 13.187765-27.973577 13.187764a31.10761 31.10761 0 0 1-12.567164-2.296222 35.669025 35.669025 0 0 1-17.407849-13.404975 35.65351 35.65351 0 0 1-6.593883-20.867699V787.992225l493.687858-605.147744-610.82624 528.581132-225.69696-92.593624c-14.118666-5.306136-21.752055-15.794288-22.869136-31.417911-0.760236-15.220232 5.321651-26.453105 18.292206-33.714133L969.226714 5.119956A35.06394 35.06394 0 0 1 987.518919 0c7.633389 0 14.506541 2.094527 20.572914 6.314612z m0 0" p-id="43905"></path></svg>