<?xml version="1.0" standalone="no"?><!DOCTYPE svg PUBLIC "-//W3C//DTD SVG 1.1//EN" "http://www.w3.org/Graphics/SVG/1.1/DTD/svg11.dtd"><svg t="1623747773990" class="icon" viewBox="0 0 1024 1024" version="1.1" xmlns="http://www.w3.org/2000/svg" p-id="36323" xmlns:xlink="http://www.w3.org/1999/xlink" width="220" height="220"><defs><style type="text/css"></style></defs><path d="M927.742192 0.004454H100.353791C46.082027-0.507543 2.050218 43.012267 1.538221 96.772033v627.70927c-2.047991 54.271764 39.935826 100.351563 94.719587 102.399554h173.567245v141.823384c-0.511998 29.695871 23.0399 54.271764 52.735771 55.295759h2.559989c14.335938-1.023996 28.159878-6.655971 39.423828-15.871931l181.247212-181.247212h378.366354c53.759766 0.511998 98.303572-43.007813 98.303572-96.767579V98.308027C1026.045764 47.620247 987.645931 3.588439 936.958151 0.004454h-9.215959z m-291.838731 582.653466H210.433312c-28.159878 0-51.199777-23.0399-51.199777-51.199777s23.0399-51.199777 51.199777-51.199778h425.470149c28.159878 0 51.199777 23.0399 51.199777 51.199778 0 28.671875-23.0399 51.199777-51.199777 51.199777z m181.247212-236.030973H210.433312c-27.64788 1.023996-50.175782-20.479911-51.199777-48.127791v-3.071987c0.511998-28.159878 23.0399-50.68778 51.199777-51.199777h606.717361c28.159878 0.511998 50.68778 23.0399 51.199777 51.199777 1.023996 27.64788-20.479911 50.175782-48.127791 51.199778h-3.071986z" p-id="36324"></path></svg>