<?xml version="1.0" standalone="no"?><!DOCTYPE svg PUBLIC "-//W3C//DTD SVG 1.1//EN" "http://www.w3.org/Graphics/SVG/1.1/DTD/svg11.dtd"><svg t="1621995779223" class="icon" viewBox="0 0 1024 1024" version="1.1" xmlns="http://www.w3.org/2000/svg" p-id="3055" xmlns:xlink="http://www.w3.org/1999/xlink" width="320" height="320"><defs><style type="text/css"></style></defs><path d="M904 307.2v493.12l-34.13333333 56.85333333-34.13333334-56.85333333V307.2h68.26666667m68.26666667-68.26666667h-204.8v580.26666667l102.4 170.66666667 102.4-170.66666667V238.93333333zM972.26666667 34.13333333h-204.8v136.53333334h204.8V34.13333333zM665.06666667 272h-579.2c-18.88 0-34.13333333-15.25333333-34.13333334-34.13333333s15.25333333-34.13333333 34.13333334-34.13333334h579.2c18.88 0 34.13333333 15.25333333 34.13333333 34.13333334s-15.25333333 34.13333333-34.13333333 34.13333333zM536.32 546.13333333H85.86666667c-18.88 0-34.13333333-15.25333333-34.13333334-34.13333333s15.25333333-34.13333333 34.13333334-34.13333333h450.45333333c18.88 0 34.13333333 15.25333333 34.13333333 34.13333333s-15.25333333 34.13333333-34.13333333 34.13333333zM472 818.13333333h-386.13333333c-18.88 0-34.13333333-15.25333333-34.13333334-34.13333333s15.25333333-34.13333333 34.13333334-34.13333333h386.13333333c18.88 0 34.13333333 15.25333333 34.13333333 34.13333333s-15.25333333 34.13333333-34.13333333 34.13333333z" p-id="3056"></path></svg>