<?xml version="1.0" standalone="no"?><!DOCTYPE svg PUBLIC "-//W3C//DTD SVG 1.1//EN" "http://www.w3.org/Graphics/SVG/1.1/DTD/svg11.dtd"><svg t="1623306741930" class="icon" viewBox="0 0 1025 1024" version="1.1" xmlns="http://www.w3.org/2000/svg" p-id="7560" xmlns:xlink="http://www.w3.org/1999/xlink" width="220.21484375" height="220"><defs><style type="text/css"></style></defs><path d="M1024.09525 513.902c0 0.439 0 0.877-0.073 1.316 0 0.22 0 0.44-0.073 0.732-0.073 0.365-0.073 0.658-0.073 0.95-0.146 0.366-0.146 0.732-0.293 1.098v0.146c-1.316 8.119-4.827 15.726-10.678 21.577-10.752 13.239-22.528 25.6-34.378 37.596-63.78 65.316-136.996 123.392-217.234 165.668-51.127 26.917-105.91 48.64-162.743 59.246-62.464 11.483-124.928 10.825-187.026-2.633-107.52-23.552-204.873-81.92-289.938-151.845-39.278-32.548-78.19-68.096-110.885-108.032-14.263-17.262-14.263-38.034 0-55.515 10.752-13.093 22.528-25.38 34.304-37.523 63.854-65.243 137.07-123.465 217.234-165.668 51.127-26.844 105.911-48.713 162.743-59.1 62.391-11.556 124.855-10.898 187.027 2.634C719.52925 248.1 816.73425 306.469 901.87425 376.32c39.497 32.402 78.336 67.95 111.104 107.813 5.705 5.924 9.435 13.677 10.679 21.723v0.146c0.073 0.293 0.146 0.659 0.146 1.17 0.073 0.366 0.073 0.586 0.073 0.951 0.073 0.22 0.22 0.44 0.22 0.659 0 0.439 0.073 0.877 0.073 1.39 0 0.73 0.073 1.39 0.073 1.901s-0.073 1.244-0.147 1.829zM512.16925 310.565c-106.058 0-192 86.528-192 193.316 0 106.716 85.942 193.39 192 193.39 105.91 0 192-86.674 192-193.39 0-106.788-86.016-193.316-192-193.316z m0 290.011c-53.102 0-96.037-43.227-96.037-96.695 0-53.321 43.008-96.548 96.037-96.548 53.028 0 95.963 43.3 95.963 96.548 0 53.468-42.935 96.695-95.963 96.695z" fill="" p-id="7561"></path></svg>